<svg width="10" height="12" viewBox="0 0 10 12" fill="none" xmlns="http://www.w3.org/2000/svg">
<path fill-rule="evenodd" clip-rule="evenodd" d="M5 6.25662C3.56207 6.25662 2.19694 6.048 1.15763 5.66585C0.74631 5.52422 0.35663 5.32474 0 5.07323V6.48554C0 7.49446 2.23881 8.3132 5 8.3132C7.7612 8.3132 10 7.49538 10 6.48554V5.07323C9.6426 5.32363 9.2531 5.52332 8.8424 5.66677C7.8021 6.04708 6.43793 6.25477 5 6.25477V6.25662ZM5 9.9471C3.56207 9.9471 2.19694 9.7385 1.15763 9.3563C0.69712 9.1883 0.30852 8.9908 0 8.7655V10.1723C0 11.1812 2.23881 12 5 12C7.7612 12 10 11.1812 10 10.1723V8.7655C9.6424 9.015 9.253 9.2137 8.8424 9.3563C7.8021 9.7394 6.43793 9.9471 5 9.9471ZM5 0C2.2379 0 0 0.81877 0 1.82769V2.80154C0 3.81138 2.23881 4.62738 5 4.62738C7.7612 4.62738 10 3.81231 10 2.80154V1.82769C10 0.81877 7.7612 0 5 0Z" fill="#211B6A"/>
</svg>
